
<svg style="visibility:hidden;width:0;height:0" xmlns="http://www.w3.org/2000/svg"
    xmlns:xlink="http://www.w3.org/1999/xlink">
    <defs>
        <linearGradient id="paint0_linear_4143_63" x1="33.1963" y1="32.0798" x2="1.11816"
            y2="-0.331763" gradientUnits="userSpaceOnUse">
            <stop stop-color="#015FFF" />
            <stop offset="0.268201" stop-color="#8A2CE2" />
            <stop offset="0.602614" stop-color="#FF6BB5" />
            <stop offset="0.85" stop-color="#FFA600" />
            <stop offset="1" stop-color="#FFD900" />
        </linearGradient>
    </defs>
    <symbol id="rd-icon-spotter" viewBox="0 0 44 44">
        <path fill-rule="evenodd" clip-rule="evenodd"
            d="M7.10592 3.9046C6.78923 3.84126 6.54169 3.59371 6.47835 3.27702L5.87001 0.235339C5.84264 0.0984995 5.72249 0 5.58294 0C5.44339 0 5.32324 0.0984995 5.29588 0.235339L4.68754 3.27702C4.6242 3.59371 4.37666 3.84126 4.05997 3.9046L1.01828 4.51293C0.881443 4.5403 0.782944 4.66045 0.782944 4.8C0.782944 4.93955 0.881443 5.0597 1.01828 5.08707L4.05997 5.69541C4.37666 5.75874 4.6242 6.00629 4.68754 6.32298L5.29588 9.36466C5.32324 9.5015 5.44339 9.6 5.58294 9.6C5.72249 9.6 5.84264 9.5015 5.87001 9.36466L6.47835 6.32298C6.54169 6.00629 6.78923 5.75874 7.10592 5.69541L10.1476 5.08707C10.2844 5.0597 10.3829 4.93955 10.3829 4.8C10.3829 4.66045 10.2844 4.5403 10.1476 4.51293L7.10592 3.9046ZM30.8933 28.0773C30.6707 28.0328 30.4967 27.8588 30.4522 27.6363L30.0247 25.4986C30.0055 25.4025 29.921 25.3333 29.823 25.3333C29.7249 25.3333 29.6405 25.4025 29.6212 25.4986L29.1937 27.6363C29.1492 27.8588 28.9752 28.0328 28.7527 28.0773L26.615 28.5048C26.5189 28.5241 26.4496 28.6085 26.4496 28.7066C26.4496 28.8047 26.5189 28.8891 26.615 28.9083L28.7527 29.3359C28.9752 29.3804 29.1492 29.5543 29.1937 29.7769L29.6212 31.9145C29.6405 32.0107 29.7249 32.0799 29.823 32.0799C29.921 32.0799 30.0055 32.0107 30.0247 31.9145L30.4522 29.7769C30.4967 29.5543 30.6707 29.3804 30.8933 29.3359L33.0309 28.9083C33.1271 28.8891 33.1963 28.8047 33.1963 28.7066C33.1963 28.6085 33.1271 28.5241 33.0309 28.5048L30.8933 28.0773ZM20.8776 13.3239C20.8909 13.3546 20.9054 13.3848 20.9211 13.4144C21.0274 13.6155 21.1819 13.7774 21.3638 13.8919C21.4202 13.9273 21.4792 13.9583 21.5403 13.9844L25.7197 15.8244C26.3592 16.106 27.1058 15.8158 27.3873 15.1763C27.6688 14.5368 27.3787 13.7902 26.7392 13.5087L22.9993 11.8622L19.4142 3.69373C18.8268 2.35532 16.9312 2.34652 16.3314 3.67942L12.6479 11.8649L4.46243 15.5484C3.12953 16.1482 3.13832 18.0438 4.47673 18.6312L12.6507 22.2187L16.7208 31.2633C16.886 31.6304 17.2046 31.8803 17.567 31.9714C18.1837 32.1679 18.8596 31.8645 19.1156 31.2564L23.1156 21.7564C23.3867 21.1124 23.0845 20.3706 22.4406 20.0995C21.7966 19.8283 21.0548 20.1306 20.7837 20.7745L17.8794 27.6722L14.8249 20.8845C14.6535 20.5037 14.347 20.2 13.9646 20.0321L7.23132 17.077L13.978 14.041C14.3539 13.8718 14.6548 13.5709 14.824 13.195L17.86 6.44832L20.8776 13.3239Z"
            fill="url(#paint0_linear_4143_63)" />
        <path fill-rule="evenodd" clip-rule="evenodd"
            d="M33.2171 15.3535C33.2171 17.6825 31.329 19.5706 29 19.5706C26.671 19.5706 24.7829 17.6825 24.7829 15.3535C24.7829 13.0245 26.671 11.1365 29 11.1365C31.329 11.1365 33.2171 13.0245 33.2171 15.3535ZM29 17.0404C29.9316 17.0404 30.6868 16.2851 30.6868 15.3535C30.6868 14.4219 29.9316 13.6667 29 13.6667C28.0684 13.6667 27.3132 14.4219 27.3132 15.3535C27.3132 16.2851 28.0684 17.0404 29 17.0404Z"
            fill="#E1BD35" />
    </symbol>
</svg>
