<svg xmlns="http://www.w3.org/2000/svg" style="visibility:hidden;width:0;height:0">
  <symbol id="rd-icon-spotter" viewBox="0 0 24 24">
    <path d="M11.25 13.5H12.75V22.5H11.25V13.5ZM9.31055 15.75L3.75 21.3105L2.68945 20.25L8.25 14.6895L9.31055 15.75ZM21.3105 20.25L20.25 21.3105L14.6895 15.75L15.75 14.6895L21.3105 20.25ZM10.5 11.0991V12.5991H1.5V11.0991H10.5ZM22.5 11.0991V12.5991H13.5V11.0991H22.5ZM11.25 1.5H12.75V10.5H11.25V1.5ZM9.31055 8.25L8.25 9.31055L2.68945 3.75L3.75 2.68945L9.31055 8.25ZM21.3105 3.75L15.75 9.31055L14.6895 8.25L20.25 2.68945L21.3105 3.75Z" fill="currentColor"/>
  </symbol>
</svg>
